<mxfile host="app.diagrams.net" modified="2024-07-22T17:11:35.245Z" agent="Mozilla/5.0 (Windows NT 10.0; Win64; x64) AppleWebKit/537.36 (KHTML, like Gecko) Chrome/126.0.0.0 Safari/537.36" etag="fksxdiIiVlipUuEtJkx-" version="24.7.1" type="device">
  <diagram name="第 1 页" id="0OHUNAdcbmi0i3O6drIp">
    <mxGraphModel dx="1018" dy="557" grid="1" gridSize="10" guides="1" tooltips="1" connect="1" arrows="1" fold="1" page="1" pageScale="1" pageWidth="827" pageHeight="1169" math="0" shadow="0">
      <root>
        <mxCell id="0" />
        <mxCell id="1" parent="0" />
        <mxCell id="yc3xJGQ9aHJ-nCMuVC62-1" value="UI Layer" style="text;html=1;align=center;verticalAlign=middle;whiteSpace=wrap;rounded=0;fontSize=24;" vertex="1" parent="1">
          <mxGeometry x="296" y="330" width="100" height="30" as="geometry" />
        </mxCell>
        <mxCell id="yc3xJGQ9aHJ-nCMuVC62-2" value="Data Layer" style="text;html=1;align=center;verticalAlign=middle;whiteSpace=wrap;rounded=0;fontSize=24;" vertex="1" parent="1">
          <mxGeometry x="541" y="330" width="130" height="30" as="geometry" />
        </mxCell>
        <mxCell id="yc3xJGQ9aHJ-nCMuVC62-3" value="User Interface" style="text;html=1;align=center;verticalAlign=middle;whiteSpace=wrap;rounded=0;fontSize=24;" vertex="1" parent="1">
          <mxGeometry x="156" y="390" width="169" height="30" as="geometry" />
        </mxCell>
        <mxCell id="yc3xJGQ9aHJ-nCMuVC62-4" value="Presentation" style="text;html=1;align=center;verticalAlign=middle;whiteSpace=wrap;rounded=0;fontSize=24;" vertex="1" parent="1">
          <mxGeometry x="396" y="390" width="60" height="30" as="geometry" />
        </mxCell>
        <mxCell id="yc3xJGQ9aHJ-nCMuVC62-5" value="Data" style="text;html=1;align=center;verticalAlign=middle;whiteSpace=wrap;rounded=0;fontSize=24;" vertex="1" parent="1">
          <mxGeometry x="576" y="390" width="60" height="30" as="geometry" />
        </mxCell>
        <mxCell id="yc3xJGQ9aHJ-nCMuVC62-6" value="" style="endArrow=none;dashed=1;html=1;dashPattern=1 3;strokeWidth=2;rounded=0;" edge="1" parent="1">
          <mxGeometry width="50" height="50" relative="1" as="geometry">
            <mxPoint x="345" y="590" as="sourcePoint" />
            <mxPoint x="345" y="390" as="targetPoint" />
          </mxGeometry>
        </mxCell>
        <mxCell id="yc3xJGQ9aHJ-nCMuVC62-7" value="" style="endArrow=none;dashed=1;html=1;dashPattern=1 3;strokeWidth=2;rounded=0;" edge="1" parent="1">
          <mxGeometry width="50" height="50" relative="1" as="geometry">
            <mxPoint x="506" y="590" as="sourcePoint" />
            <mxPoint x="506" y="390" as="targetPoint" />
          </mxGeometry>
        </mxCell>
        <mxCell id="yc3xJGQ9aHJ-nCMuVC62-10" value="Tasks&lt;div&gt;Database&lt;div&gt;Helper&lt;/div&gt;&lt;/div&gt;" style="rounded=0;whiteSpace=wrap;html=1;fontSize=20;" vertex="1" parent="1">
          <mxGeometry x="551" y="440" width="120" height="90" as="geometry" />
        </mxCell>
        <mxCell id="yc3xJGQ9aHJ-nCMuVC62-12" value="Local&lt;div&gt;Database&lt;/div&gt;" style="rounded=0;whiteSpace=wrap;html=1;fontSize=20;" vertex="1" parent="1">
          <mxGeometry x="551" y="570" width="120" height="90" as="geometry" />
        </mxCell>
        <mxCell id="yc3xJGQ9aHJ-nCMuVC62-13" value="Task&lt;div&gt;Adapter&lt;/div&gt;" style="rounded=0;whiteSpace=wrap;html=1;fontSize=20;" vertex="1" parent="1">
          <mxGeometry x="366" y="440" width="120" height="90" as="geometry" />
        </mxCell>
        <mxCell id="yc3xJGQ9aHJ-nCMuVC62-14" value="Tasks&lt;div&gt;Activity&lt;/div&gt;" style="rounded=0;whiteSpace=wrap;html=1;fontSize=20;" vertex="1" parent="1">
          <mxGeometry x="180.5" y="440" width="120" height="90" as="geometry" />
        </mxCell>
        <mxCell id="yc3xJGQ9aHJ-nCMuVC62-15" value="&lt;font style=&quot;font-size: 16px;&quot;&gt;(Add,Main,Update)&lt;/font&gt;" style="text;html=1;align=center;verticalAlign=middle;whiteSpace=wrap;rounded=0;" vertex="1" parent="1">
          <mxGeometry x="210.5" y="540" width="60" height="30" as="geometry" />
        </mxCell>
        <mxCell id="yc3xJGQ9aHJ-nCMuVC62-16" value="" style="endArrow=classic;html=1;rounded=0;exitX=1;exitY=0.5;exitDx=0;exitDy=0;entryX=0;entryY=0.5;entryDx=0;entryDy=0;" edge="1" parent="1" source="yc3xJGQ9aHJ-nCMuVC62-14" target="yc3xJGQ9aHJ-nCMuVC62-13">
          <mxGeometry width="50" height="50" relative="1" as="geometry">
            <mxPoint x="466" y="560" as="sourcePoint" />
            <mxPoint x="516" y="510" as="targetPoint" />
          </mxGeometry>
        </mxCell>
        <mxCell id="yc3xJGQ9aHJ-nCMuVC62-17" value="" style="endArrow=classic;html=1;rounded=0;exitX=1;exitY=0.5;exitDx=0;exitDy=0;" edge="1" parent="1" source="yc3xJGQ9aHJ-nCMuVC62-13" target="yc3xJGQ9aHJ-nCMuVC62-10">
          <mxGeometry width="50" height="50" relative="1" as="geometry">
            <mxPoint x="311" y="495" as="sourcePoint" />
            <mxPoint x="376" y="495" as="targetPoint" />
          </mxGeometry>
        </mxCell>
        <mxCell id="yc3xJGQ9aHJ-nCMuVC62-18" value="" style="endArrow=none;html=1;rounded=0;entryX=0.5;entryY=1;entryDx=0;entryDy=0;exitX=0.5;exitY=0;exitDx=0;exitDy=0;" edge="1" parent="1" source="yc3xJGQ9aHJ-nCMuVC62-12" target="yc3xJGQ9aHJ-nCMuVC62-10">
          <mxGeometry width="50" height="50" relative="1" as="geometry">
            <mxPoint x="466" y="560" as="sourcePoint" />
            <mxPoint x="516" y="510" as="targetPoint" />
          </mxGeometry>
        </mxCell>
      </root>
    </mxGraphModel>
  </diagram>
</mxfile>
